<svg width="17" height="17" viewBox="0 0 17 17" fill="none" xmlns="http://www.w3.org/2000/svg">
<path d="M1.40579 8.39734C1.34911 8.24465 1.34911 8.07668 1.40579 7.92399C1.95783 6.58546 2.89488 5.44098 4.09815 4.63564C5.30142 3.83031 6.71672 3.40039 8.16462 3.40039C9.61252 3.40039 11.0278 3.83031 12.2311 4.63564C13.4344 5.44098 14.3714 6.58546 14.9234 7.92399C14.9801 8.07668 14.9801 8.24465 14.9234 8.39734C14.3714 9.73587 13.4344 10.8804 12.2311 11.6857C11.0278 12.491 9.61252 12.9209 8.16462 12.9209C6.71672 12.9209 5.30142 12.491 4.09815 11.6857C2.89488 10.8804 1.95783 9.73587 1.40579 8.39734Z" stroke="white" stroke-width="1.8136" stroke-linecap="round" stroke-linejoin="round"/>
<path d="M8.16139 10.2017C9.28822 10.2017 10.2017 9.28822 10.2017 8.16139C10.2017 7.03457 9.28822 6.12109 8.16139 6.12109C7.03457 6.12109 6.12109 7.03457 6.12109 8.16139C6.12109 9.28822 7.03457 10.2017 8.16139 10.2017Z" stroke="white" stroke-width="1.8136" stroke-linecap="round" stroke-linejoin="round"/>
</svg>
