<svg width="18" height="18" viewBox="0 0 18 18" fill="none" xmlns="http://www.w3.org/2000/svg">
<g clip-path="url(#clip0_83_279)">
<path d="M7.49973 15C7.49966 15.1394 7.53844 15.276 7.6117 15.3946C7.68496 15.5131 7.78981 15.609 7.91448 15.6713L9.41448 16.4213C9.52885 16.4784 9.65594 16.5054 9.78366 16.4996C9.91139 16.4938 10.0355 16.4555 10.1443 16.3882C10.253 16.3209 10.3427 16.227 10.4049 16.1153C10.4672 16.0036 10.4998 15.8779 10.4997 15.75V10.5C10.4999 10.1283 10.6381 9.76988 10.8875 9.49425L16.3047 3.5025C16.4018 3.39492 16.4657 3.26151 16.4886 3.11841C16.5114 2.97531 16.4924 2.82865 16.4337 2.69616C16.3749 2.56366 16.2791 2.45102 16.1577 2.37184C16.0364 2.29266 15.8946 2.25034 15.7497 2.25H2.24973C2.10468 2.25005 1.96277 2.29216 1.84117 2.37123C1.71957 2.45029 1.6235 2.56292 1.56461 2.69547C1.50571 2.82802 1.48652 2.97481 1.50935 3.11804C1.53218 3.26128 1.59605 3.39482 1.69323 3.5025L7.11198 9.49425C7.36138 9.76988 7.49956 10.1283 7.49973 10.5V15Z" stroke="#374151" stroke-width="2" stroke-linecap="round" stroke-linejoin="round"/>
</g>
<defs>
<clipPath id="clip0_83_279">
<rect width="18" height="18" fill="white"/>
</clipPath>
</defs>
</svg>
