<svg width="20" height="20" viewBox="0 0 20 20" fill="none" xmlns="http://www.w3.org/2000/svg">
<path d="M6.66667 2.5H4.16667C3.72464 2.5 3.30072 2.67559 2.98816 2.98816C2.67559 3.30072 2.5 3.72464 2.5 4.16667V6.66667" stroke="#1F2937" stroke-width="2" stroke-linecap="round" stroke-linejoin="round"/>
<path d="M17.4987 6.66667V4.16667C17.4987 3.72464 17.3231 3.30072 17.0105 2.98816C16.698 2.67559 16.2741 2.5 15.832 2.5H13.332" stroke="#1F2937" stroke-width="2" stroke-linecap="round" stroke-linejoin="round"/>
<path d="M2.5 13.334V15.834C2.5 16.276 2.67559 16.6999 2.98816 17.0125C3.30072 17.3251 3.72464 17.5007 4.16667 17.5007H6.66667" stroke="#1F2937" stroke-width="2" stroke-linecap="round" stroke-linejoin="round"/>
<path d="M13.332 17.5007H15.832C16.2741 17.5007 16.698 17.3251 17.0105 17.0125C17.3231 16.6999 17.4987 16.276 17.4987 15.834V13.334" stroke="#1F2937" stroke-width="2" stroke-linecap="round" stroke-linejoin="round"/>
</svg>
