<svg width="36" height="36" viewBox="0 0 36 36" fill="none" xmlns="http://www.w3.org/2000/svg">
<path d="M9 28.5C12.3137 28.5 15 25.8137 15 22.5C15 19.1863 12.3137 16.5 9 16.5C5.68629 16.5 3 19.1863 3 22.5C3 25.8137 5.68629 28.5 9 28.5Z" stroke="#818CF8" stroke-width="2" stroke-linecap="round" stroke-linejoin="round"/>
<path d="M27 28.5C30.3137 28.5 33 25.8137 33 22.5C33 19.1863 30.3137 16.5 27 16.5C23.6863 16.5 21 19.1863 21 22.5C21 25.8137 23.6863 28.5 27 28.5Z" stroke="#818CF8" stroke-width="2" stroke-linecap="round" stroke-linejoin="round"/>
<path d="M21 22.5C21 21.7044 20.6839 20.9413 20.1213 20.3787C19.5587 19.8161 18.7956 19.5 18 19.5C17.2044 19.5 16.4413 19.8161 15.8787 20.3787C15.3161 20.9413 15 21.7044 15 22.5" stroke="#818CF8" stroke-width="2" stroke-linecap="round" stroke-linejoin="round"/>
<path d="M3.75 19.5L7.5 10.5C8.55 8.55 9.6 7.5 12 7.5" stroke="#818CF8" stroke-width="2" stroke-linecap="round" stroke-linejoin="round"/>
<path d="M32.25 19.5L28.5 10.5C27.45 8.55 26.25 7.5 24 7.5" stroke="#818CF8" stroke-width="2" stroke-linecap="round" stroke-linejoin="round"/>
</svg>
