<svg width="135" height="32" viewBox="0 0 135 32" fill="none" xmlns="http://www.w3.org/2000/svg">
<path d="M3.84673 23H0.485369L5.6071 8.16364H9.64943L14.7639 23H11.4026L7.68622 11.554H7.57031L3.84673 23ZM3.63665 17.1683H11.5764V19.6169H3.63665V17.1683ZM16.4917 23V11.8727H19.4836V13.8142H19.5995C19.8023 13.1236 20.1428 12.602 20.621 12.2494C21.0991 11.892 21.6496 11.7134 22.2727 11.7134C22.4272 11.7134 22.5938 11.723 22.7725 11.7423C22.9512 11.7616 23.1082 11.7882 23.2434 11.822V14.5604C23.0985 14.5169 22.8981 14.4783 22.6421 14.4445C22.3862 14.4107 22.1519 14.3938 21.9394 14.3938C21.4854 14.3938 21.0798 14.4928 20.7224 14.6908C20.3698 14.8839 20.0897 15.1544 19.882 15.5021C19.6792 15.8499 19.5778 16.2507 19.5778 16.7047V23H16.4917ZM31.3154 11.8727V14.1909H24.6144V11.8727H31.3154ZM26.1357 9.20682H29.2218V19.5807C29.2218 19.8656 29.2652 20.0878 29.3522 20.2472C29.4391 20.4017 29.5598 20.5104 29.7144 20.5732C29.8738 20.6359 30.0573 20.6673 30.2649 20.6673C30.4098 20.6673 30.5547 20.6553 30.6996 20.6311C30.8445 20.6021 30.9556 20.5804 31.0328 20.5659L31.5182 22.8624C31.3637 22.9107 31.1463 22.9662 30.8662 23.029C30.5861 23.0966 30.2456 23.1376 29.8448 23.1521C29.101 23.1811 28.449 23.0821 27.8888 22.8551C27.3334 22.6281 26.9012 22.2756 26.5921 21.7974C26.283 21.3193 26.1309 20.7156 26.1357 19.9864V9.20682Z" fill="#FF6B2C"/>
<path d="M40.3155 23H36.9541L42.0759 8.16364H46.1182L51.2327 23H47.8713L44.155 11.554H44.0391L40.3155 23ZM40.1054 17.1683H48.0452V19.6169H40.1054V17.1683ZM56.0465 8.16364V23H52.9604V8.16364H56.0465ZM63.5462 23.2173C62.4064 23.2173 61.426 22.9759 60.605 22.4929C59.7888 22.0051 59.161 21.329 58.7215 20.4645C58.2868 19.6 58.0695 18.6051 58.0695 17.4798C58.0695 16.3401 58.2892 15.3403 58.7287 14.4807C59.173 13.6162 59.8033 12.9425 60.6195 12.4595C61.4357 11.9717 62.4064 11.7278 63.5317 11.7278C64.5025 11.7278 65.3525 11.9041 66.0817 12.2567C66.811 12.6092 67.3881 13.1043 67.8131 13.7418C68.2381 14.3793 68.4723 15.1278 68.5158 15.9875H65.6036C65.5215 15.4321 65.3042 14.9854 64.9516 14.6473C64.6039 14.3044 64.1475 14.133 63.5824 14.133C63.1043 14.133 62.6865 14.2634 62.3292 14.5241C61.9766 14.7801 61.7013 15.1544 61.5033 15.647C61.3053 16.1396 61.2063 16.7361 61.2063 17.4364C61.2063 18.1463 61.3029 18.75 61.4961 19.2474C61.6941 19.7449 61.9718 20.124 62.3292 20.3848C62.6865 20.6456 63.1043 20.776 63.5824 20.776C63.935 20.776 64.2513 20.7036 64.5314 20.5587C64.8164 20.4138 65.0506 20.2037 65.2341 19.9284C65.4225 19.6483 65.5456 19.3126 65.6036 18.9214H68.5158C68.4675 19.7714 68.2357 20.52 67.8203 21.1672C67.4098 21.8095 66.8424 22.3118 66.1179 22.674C65.3935 23.0362 64.5363 23.2173 63.5462 23.2173ZM73.5778 16.567V23H70.4917V8.16364H73.4908V13.8359H73.6212C73.8724 13.1791 74.2781 12.6648 74.8383 12.2929C75.3985 11.9162 76.1012 11.7278 76.9464 11.7278C77.7191 11.7278 78.3928 11.8969 78.9675 12.2349C79.5471 12.5682 79.9962 13.0487 80.315 13.6766C80.6386 14.2996 80.7979 15.0457 80.7931 15.9151V23H77.707V16.4656C77.7119 15.7798 77.538 15.2462 77.1854 14.8646C76.8377 14.4831 76.3499 14.2923 75.7221 14.2923C75.3019 14.2923 74.93 14.3817 74.6065 14.5604C74.2877 14.7391 74.0366 14.9999 73.8531 15.3428C73.6744 15.6808 73.5826 16.0889 73.5778 16.567ZM88.2928 23.2173C87.1482 23.2173 86.163 22.9855 85.3371 22.5219C84.5161 22.0534 83.8834 21.3918 83.4391 20.5369C82.9948 19.6773 82.7726 18.6607 82.7726 17.4871C82.7726 16.3425 82.9948 15.3379 83.4391 14.4734C83.8834 13.6089 84.5088 12.9352 85.3154 12.4523C86.1267 11.9693 87.0782 11.7278 88.1696 11.7278C88.9037 11.7278 89.5871 11.8462 90.2198 12.0828C90.8573 12.3146 91.4127 12.6648 91.886 13.1332C92.3641 13.6017 92.736 14.1909 93.0016 14.9009C93.2672 15.606 93.4 16.4318 93.4 17.3784V18.226H84.0042V16.3135H90.4951C90.4951 15.8692 90.3985 15.4756 90.2053 15.1327C90.0121 14.7898 89.7441 14.5217 89.4012 14.3286C89.0631 14.1305 88.6695 14.0315 88.2203 14.0315C87.7519 14.0315 87.3365 14.1402 86.9743 14.3575C86.6169 14.57 86.3368 14.8574 86.134 15.2196C85.9311 15.577 85.8273 15.9754 85.8225 16.4149V18.2332C85.8225 18.7838 85.9239 19.2595 86.1267 19.6604C86.3344 20.0612 86.6266 20.3703 87.0033 20.5876C87.38 20.805 87.8267 20.9136 88.3435 20.9136C88.6864 20.9136 89.0003 20.8653 89.2853 20.7688C89.5702 20.6722 89.8141 20.5273 90.0169 20.3341C90.2198 20.1409 90.3743 19.9043 90.4806 19.6241L93.3348 19.8125C93.19 20.4983 92.8929 21.0972 92.4438 21.6091C91.9995 22.1162 91.4248 22.5122 90.7196 22.7972C90.0194 23.0773 89.2104 23.2173 88.2928 23.2173ZM95.414 23V11.8727H98.3551V13.8359H98.4855C98.7174 13.1839 99.1037 12.6696 99.6446 12.2929C100.186 11.9162 100.833 11.7278 101.586 11.7278C102.349 11.7278 102.999 11.9186 103.535 12.3001C104.071 12.6768 104.428 13.1888 104.607 13.8359H104.723C104.95 13.1984 105.36 12.6889 105.954 12.3074C106.553 11.921 107.261 11.7278 108.077 11.7278C109.115 11.7278 109.958 12.0587 110.605 12.7203C111.257 13.3771 111.583 14.3092 111.583 15.5166V23H108.504V16.1251C108.504 15.507 108.34 15.0433 108.012 14.7342C107.683 14.4251 107.273 14.2706 106.78 14.2706C106.22 14.2706 105.783 14.4493 105.469 14.8067C105.155 15.1592 104.998 15.6253 104.998 16.2048V23H102.006V16.0599C102.006 15.5142 101.849 15.0795 101.535 14.756C101.226 14.4324 100.818 14.2706 100.311 14.2706C99.9682 14.2706 99.6591 14.3575 99.3838 14.5314C99.1134 14.7004 98.8985 14.9395 98.7391 15.2486C98.5797 15.5528 98.5 15.9102 98.5 16.3207V23H95.414ZM115.528 27.1727C115.137 27.1727 114.77 27.1413 114.427 27.0786C114.089 27.0206 113.808 26.9457 113.586 26.854L114.282 24.5503C114.644 24.6614 114.97 24.7217 115.26 24.7314C115.554 24.7411 115.808 24.6734 116.02 24.5286C116.238 24.3837 116.414 24.1374 116.549 23.7896L116.73 23.3187L112.739 11.8727H115.984L118.288 20.0443H118.404L120.729 11.8727H123.996L119.672 24.2026C119.464 24.8014 119.181 25.323 118.824 25.7673C118.471 26.2165 118.025 26.5618 117.484 26.8033C116.943 27.0496 116.291 27.1727 115.528 27.1727Z" fill="white"/>
</svg>
